<svg xmlns="http://www.w3.org/2000/svg" width="50" height="44" fill="none" viewBox="0 0 50 44"><g fill="#ef5356" clip-path="url(#clip0_3761_41703)"><path d="M19.645 0c1.105 0 2.001.891 2.001 1.99V19.9c-.185 6.381-1.616 11.347-4.691 15.423-2.782 3.687-6.617 6.194-10.731 8.437a1.983 1.983 0 0 1-2.697-.82L.73 37.657c-.514-.973-.136-2.174.831-2.705 3.669-2.017 5.907-3.638 7.387-5.6 1.428-1.893 2.486-4.583 2.663-9.452h-7.98a1.996 1.996 0 0 1-2.002-1.99V1.99C1.629.891 2.525 0 3.63 0Z"/><path d="M47.498 0C48.604 0 49.5.891 49.5 1.99v17.912c-.185 6.381-1.616 11.345-4.692 15.421-2.782 3.687-6.616 6.194-10.73 8.437a1.983 1.983 0 0 1-2.696-.82l-2.798-5.283c-.515-.973-.136-2.174.831-2.705 3.669-2.017 5.907-3.638 7.386-5.6 1.429-1.893 2.487-4.583 2.664-9.452h-7.98a1.996 1.996 0 0 1-2.002-1.99V1.99c0-1.099.895-1.99 2-1.99Z"/></g><defs><clipPath id="clip0_3761_41703"><path fill="#fff" d="M.5 0h49v44H.5Z"/></clipPath></defs></svg>